<svg width="392" height="100" viewBox="0 0 392 100" fill="none" xmlns="http://www.w3.org/2000/svg">
<path d="M54.8693 21.6599C54.8693 21.6599 54.8949 21.4791 55.0352 21.2852C54.9243 21.5176 54.8693 21.6599 54.8693 21.6599ZM93.4857 83.9289C92.8178 83.9289 58.2316 83.9289 56.3522 83.9289C54.4724 83.9289 51.59 84.0119 49.0832 81.548C46.5765 79.0842 48.6241 75.0328 50.7118 73.4877C52.8 71.9425 62.0843 67.854 62.0843 67.854L65.8507 65.8145C65.4191 65.8661 65.1794 65.8864 65.1794 65.8864L64.3644 62.9986C64.3162 62.9837 64.2776 62.9432 64.2737 62.8897C64.2699 62.853 64.2848 62.8197 64.307 62.7937L62.9475 57.9769C62.0182 58.7259 60.9703 59.5023 60.028 60.0386C59.3914 60.4003 58.7018 60.5329 58.0083 60.4996C58.2132 60.9168 58.3386 61.3759 58.3844 61.8755C58.4235 62.2941 58.4124 62.6186 58.3608 62.8766C58.3497 62.9765 58.3348 63.0777 58.3126 63.1829C58.3015 63.2311 58.2663 63.2658 58.2224 63.2769C57.9605 63.749 57.4474 63.832 56.8263 63.9352C55.8227 64.103 54.7106 61.9859 54.7106 61.9859C54.7106 61.9859 54.2641 61.7077 50.6453 62.8217C47.0525 63.926 44.6677 64.592 43.4891 63.4578C43.4688 63.5021 43.4264 63.5335 43.3787 63.5335C43.3676 63.5335 43.3565 63.5315 43.3454 63.5277C42.7956 63.9632 40.3887 65.8179 38.2822 66.5519C38.2822 66.5519 38.288 66.563 38.2952 66.5818C38.3083 66.6112 38.3285 66.6647 38.356 66.7366C38.3579 66.74 38.3599 66.7458 38.3618 66.7491C38.6603 67.5313 39.6566 70.4413 38.5055 71.7839C38.5055 71.7839 39.7304 74.1773 38.3377 76.4048C36.9454 78.6328 35.108 79.1893 35.108 79.1893C35.108 79.1893 35.9992 80.4138 36.5562 80.9158C37.1132 81.4173 39.4517 81.3619 40.3979 82.0293C41.344 82.6968 40.8444 83.7553 40.23 83.7553C40.1119 83.7553 39.8447 83.7553 39.4796 83.7553C39.4628 83.7645 39.4444 83.7702 39.4242 83.7702C39.4184 83.7702 39.4131 83.7702 39.4073 83.7683C39.3928 83.7664 39.3798 83.7611 39.3668 83.7553C37.8067 83.7553 34.6914 83.7553 33.1588 83.7553C31.209 83.7553 30.652 83.1433 28.8151 82.2526C26.9782 81.3619 26.3084 79.8587 26.6995 77.5188C26.6995 77.5188 23.6362 74.4555 21.1863 70.4466C21.1863 70.4466 20.4615 73.4544 16.1733 75.1804C11.8851 76.9063 10.1037 76.0711 10.1037 76.0711L10.6052 75.1254C10.6052 75.1254 3.42111 73.8436 2.75174 66.7732L4.14449 66.6054C4.14449 66.6054 2.69628 60.4794 6.98447 57.5844C6.98447 57.5844 5.03521 64.8794 9.43577 67.9408C13.8368 71.0016 20.2402 67.4392 20.2402 67.4392C20.2402 67.4392 20.1297 62.1484 24.0268 58.8643C27.9258 55.5777 31.5447 51.792 34.0514 47.0602C36.5577 42.3264 37.0597 41.7139 36.8364 39.0972C36.8364 39.0972 35.7779 38.7635 35.6115 37.093C35.4437 35.422 35.3332 32.6374 35.8348 31.3026C36.3363 29.9653 37.9504 29.1874 39.9002 28.3517C41.8494 27.5164 44.1329 27.1272 45.6361 28.4626C47.1393 29.7994 48.1978 30.0207 49.5351 29.8548C49.9778 29.7994 50.4297 29.7034 50.8502 29.6484C50.8816 29.6446 50.9129 29.6407 50.9442 29.6373C50.9795 29.6335 51.0142 29.6296 51.0475 29.6263C51.1068 29.6205 51.1656 29.6171 51.223 29.6132C51.2466 29.6113 51.2707 29.6113 51.2948 29.6113C51.3373 29.6094 51.3778 29.6094 51.4183 29.6113C51.4424 29.6113 51.468 29.6132 51.4921 29.6132C51.5437 29.6152 51.5934 29.6205 51.6416 29.6263C51.658 29.6282 51.6729 29.6296 51.6893 29.6335C51.7376 29.6407 51.7853 29.6518 51.8316 29.6629C51.8499 29.6687 51.8682 29.674 51.8851 29.6798C51.9256 29.6923 51.9661 29.7073 52.0047 29.7256C52.0158 29.7314 52.0288 29.7348 52.0419 29.7405C52.0896 29.7647 52.134 29.7921 52.1764 29.8235C52.1894 29.8327 52.2005 29.8418 52.2111 29.851C52.2444 29.879 52.2757 29.9084 52.3056 29.9397C52.3163 29.9508 52.3259 29.9619 52.337 29.973C52.3736 30.0169 52.4069 30.0651 52.4383 30.1186C52.4436 30.1297 52.4494 30.1408 52.4547 30.1519C52.4788 30.1977 52.5029 30.2493 52.5212 30.3029C52.5285 30.3212 52.5342 30.34 52.5415 30.3583C52.5637 30.4263 52.5839 30.4982 52.6003 30.5797C52.6263 30.7123 52.6466 30.8377 52.6669 30.9578C52.6707 30.9799 52.6741 31.0002 52.6779 31.0219C52.6963 31.14 52.7112 31.2543 52.7242 31.3633C52.7262 31.3725 52.7262 31.3797 52.7276 31.3889C52.8366 32.322 52.7575 32.9273 52.7132 33.8103C52.6577 34.9243 51.9329 35.5917 50.2064 35.9828C49.0133 36.2519 48.2716 36.4694 47.8916 36.7424C48.2128 37.9726 48.6555 39.5124 48.9265 39.9918C49.1773 40.4379 51.7853 44.5115 53.4838 47.1595C54.8394 45.0685 57.9181 40.3405 59.1184 38.7119C59.8119 37.7715 60.869 36.7535 61.9903 35.9143C61.8244 35.6636 61.6454 35.3887 61.4849 35.1418C61.4038 35.0183 61.3262 34.8982 61.2601 34.797C61.2563 34.7897 61.251 34.7839 61.2471 34.7767C61.2211 34.7362 61.1974 34.701 61.1752 34.6658C61.168 34.6552 61.1603 34.6422 61.1531 34.6311C61.127 34.5906 61.1034 34.5515 61.0831 34.5221C61.0629 34.4907 61.0421 34.4632 61.0204 34.4372C61.0127 34.43 61.0055 34.4227 61.0002 34.415C60.9852 34.3986 60.9684 34.3837 60.952 34.3692C60.9428 34.362 60.9356 34.3562 60.9264 34.3509C60.9095 34.3398 60.8931 34.3268 60.8763 34.3176C60.8671 34.3118 60.8579 34.3084 60.8488 34.3027C60.8304 34.2935 60.8116 34.2863 60.7914 34.2785C60.7822 34.2752 60.775 34.2732 60.7658 34.2694C60.7436 34.2621 60.7195 34.2583 60.6954 34.253C60.6882 34.2511 60.6829 34.2511 60.6752 34.2491C60.5797 34.2347 60.4707 34.24 60.3525 34.2549C60.1148 34.2863 59.8327 34.3634 59.4951 34.4353C58.7018 34.6031 56.7376 34.5187 55.7764 32.431C54.8158 30.3434 54.565 27.8376 54.3138 25.4567C54.1942 24.3113 54.4136 22.6538 55.1331 21.1801C55.0998 21.2133 55.0704 21.2485 55.0444 21.2818C55.3819 20.5826 56.2375 19.076 57.6413 18.2996C58.8127 17.6524 61.6749 17.1065 63.8146 18.0416C63.9622 17.6432 64.2057 17.1692 64.5746 16.9628C65.2696 16.5736 65.9394 17.2135 66.7192 16.8244C67.4995 16.4357 68.4182 15.9616 69.1136 16.4906C69.809 17.0202 69.6981 18.0213 70.5339 18.1062C71.3691 18.1891 71.8986 19.9725 71.2293 20.4996C70.5613 21.0291 71.006 22.1981 70.2257 22.8381C69.4454 23.478 69.0287 23.3396 68.0531 23.8691C67.4185 24.2139 66.9242 24.4256 66.4188 24.2636C66.0995 27.8689 64.2737 30.2585 64.2737 30.2585C64.2737 30.2585 64.2718 30.2532 64.2718 30.2493C63.9955 31.2823 64.2699 31.9015 64.7126 32.4715C65.137 33.0175 66.0002 33.7606 66.4429 34.1257C68.5214 34.4078 72.6032 36.2871 76.2698 41.9372C79.007 46.1564 82.5222 52.0872 84.4772 55.4268C84.4849 55.4321 84.4922 55.436 84.4975 55.4432C84.5124 55.4615 84.5197 55.4837 84.5235 55.504C85.407 57.0124 85.9602 57.9736 85.9602 57.9736C85.516 58.4766 85.0178 58.9487 84.4772 59.3933C89.3745 65.9934 85.5912 74.2197 80.1688 75.7928C77.1643 76.6633 68.9236 77.963 68.9236 77.963L67.8024 78.2528C67.8057 78.2673 67.8057 78.2822 67.8038 78.2972C68.6526 78.3893 73.7336 78.9463 75.9505 79.3277C78.3743 79.7444 80.2942 79.9547 81.5061 79.4531C82.718 78.9516 83.7191 78.2012 84.8056 79.3702C85.8922 80.5392 87.5207 80.7899 89.2342 81.1241C90.9476 81.4578 92.8675 82.2102 93.6627 82.7117C94.4464 83.219 94.1532 83.9289 93.4857 83.9289ZM53.6299 58.1115C53.4896 57.9345 53.3661 57.7556 53.261 57.5752C52.798 56.7877 51.4439 54.2872 49.972 51.5596C50.0333 52.4248 50.0444 53.2084 49.974 53.804C49.6402 56.644 48.2475 58.6482 48.2475 58.6482C48.2475 58.6482 51.2394 57.9326 53.6299 58.1115Z" fill="#565772"/>
<path d="M85.9529 57.9789C80.1616 64.5496 65.1794 65.8864 65.1794 65.8864L62.7281 57.1991L60.0555 52.2439L52.8164 48.1795C52.8164 48.1795 57.5511 40.829 59.1093 38.7138C60.6679 36.5987 64.0654 34.0924 65.9042 34.0924C67.7411 34.0924 72.2526 35.7634 76.2625 41.9444C80.272 48.124 85.9529 57.9789 85.9529 57.9789ZM57.35 21.0957C57.7426 22.3032 58.8605 24.7598 61.4998 25.0916C61.9478 25.842 62.243 26.3971 62.4219 26.4062C62.8959 26.4342 63.3406 24.6803 64.5949 24.9035C65.8468 25.1268 65.4856 27.7435 64.6779 28.3835C63.8701 29.0229 64.2665 30.2623 64.2665 30.2623C64.2665 30.2623 66.0923 27.8723 66.4116 24.2674C66.917 24.4295 67.4113 24.2173 68.0454 23.8725C69.0196 23.3435 69.4382 23.4833 70.2185 22.8419C70.9983 22.202 70.5522 21.033 71.2216 20.5035C71.8895 19.9744 71.36 18.193 70.5261 18.11C69.6909 18.0271 69.8013 17.0235 69.1059 16.4945C68.411 15.965 67.4904 16.439 66.712 16.8282C65.9317 17.2174 65.2643 16.5774 64.5669 16.9666C64.198 17.173 63.9545 17.6471 63.8069 18.0454C61.6676 17.1084 58.805 17.6562 57.6341 18.3034C56.2302 19.0779 55.3747 20.5845 55.0372 21.2852C55.2841 20.9462 55.8927 20.5681 57.35 21.0957ZM54.8693 21.6599C54.8693 21.6599 54.9243 21.5157 55.0352 21.2852C54.8968 21.4791 54.8693 21.6599 54.8693 21.6599ZM54.4319 25.0844C54.5964 25.1249 54.7251 24.9166 55.2252 24.8756C55.7268 24.8336 55.9554 24.8129 55.9775 24.5621C55.9978 24.3113 55.2474 24.3943 54.8288 24.5621C54.4097 24.7299 54.347 25.0641 54.4319 25.0844ZM57.147 24.6875C57.1745 24.9108 57.6061 24.7082 58.4843 24.6875C59.362 24.6672 59.6962 25.0217 59.7994 24.9807C59.9045 24.9387 59.2569 24.1879 58.3994 24.1879C57.5415 24.1879 57.1248 24.5216 57.147 24.6875Z" fill="#242330"/>
<path d="M84.4738 55.6279C76.956 61.8181 64.5356 62.9948 64.4102 63.0059C64.4063 63.0059 64.403 63.0059 64.3991 63.0059C64.3345 63.0059 64.2795 62.9562 64.2737 62.8916C64.2684 62.8217 64.32 62.7604 64.388 62.7551C64.5115 62.744 76.8562 61.5731 84.3133 55.434C84.3668 55.3897 84.4459 55.3974 84.4902 55.4509C84.5365 55.5025 84.5288 55.5835 84.4738 55.6279ZM82.1002 52.0004C82.0578 51.9449 81.9782 51.9338 81.9227 51.9763C75.9968 56.5292 63.7683 59.7733 63.6449 59.8066C63.5764 59.8249 63.5359 59.8929 63.5547 59.9614C63.5691 60.0183 63.6207 60.0555 63.6762 60.0555C63.6873 60.0555 63.6984 60.0535 63.7075 60.0516C63.831 60.0183 76.1092 56.7617 82.0761 52.1774C82.1315 52.1349 82.1422 52.0558 82.1002 52.0004ZM70.9081 53.3999C70.9264 53.4515 70.9746 53.4848 71.0281 53.4848C71.0426 53.4848 71.0556 53.4828 71.0706 53.4775C71.1347 53.4553 77.5275 51.1593 80.2445 48.8325C80.298 48.7862 80.3033 48.7071 80.2575 48.6536C80.2112 48.6 80.1321 48.5942 80.0786 48.6405C77.3987 50.9365 71.0484 53.2157 70.9857 53.2398C70.9192 53.262 70.8859 53.3357 70.9081 53.3999ZM74.8625 46.6064C74.8809 46.658 74.9291 46.6913 74.9826 46.6913C74.9971 46.6913 75.0101 46.6893 75.0246 46.684C75.0434 46.6782 76.7771 46.0585 78.1086 45.2826C78.1693 45.2474 78.1896 45.1698 78.1549 45.109C78.1197 45.0482 78.042 45.028 77.9813 45.0632C76.67 45.828 74.9566 46.4386 74.9402 46.4458C74.8736 46.468 74.8384 46.5418 74.8625 46.6064ZM74.3128 40.6226C74.3388 40.6226 74.3644 40.6149 74.3866 40.5985L74.7757 40.3202C74.8331 40.2792 74.8457 40.2001 74.8052 40.1427C74.7646 40.0858 74.6856 40.0728 74.6282 40.1133L74.239 40.3921C74.1821 40.4326 74.1691 40.5117 74.2096 40.5691C74.2356 40.6038 74.2742 40.6226 74.3128 40.6226ZM65.5705 36.7795C65.5724 36.7795 65.5758 36.7795 65.5777 36.7795L68.2504 36.6117C68.3203 36.6078 68.3738 36.5471 68.3685 36.4771C68.3647 36.4067 68.3092 36.3551 68.2335 36.359L65.5613 36.5268C65.4909 36.5302 65.4374 36.5914 65.4432 36.6614C65.447 36.7279 65.5039 36.7795 65.5705 36.7795ZM66.4024 38.5422C66.3397 38.5127 66.264 38.5402 66.2346 38.6029C66.2047 38.6661 66.2326 38.7413 66.2953 38.7707L74.4825 42.5569C74.4989 42.5641 74.5177 42.568 74.5361 42.568C74.5838 42.568 74.6301 42.54 74.6503 42.4942C74.6798 42.4315 74.6523 42.3558 74.5896 42.3264L66.4024 38.5422ZM64.7328 41.3879L74.702 46.3426C74.7203 46.3518 74.7391 46.3556 74.7593 46.3556C74.8052 46.3556 74.8495 46.3301 74.8717 46.2857C74.903 46.223 74.8775 46.1473 74.8143 46.1159L64.8457 41.1608C64.7849 41.1294 64.7073 41.1555 64.6759 41.2182C64.6465 41.2809 64.6701 41.3566 64.7328 41.3879ZM73.3058 50.0164C73.3242 50.027 73.3463 50.0328 73.3666 50.0328C73.411 50.0328 73.4553 50.0087 73.4775 49.9682C73.5108 49.9074 73.4886 49.8298 73.4274 49.7965L63.2354 44.1725C63.1747 44.1392 63.097 44.1614 63.0637 44.2221C63.0305 44.2829 63.0526 44.3605 63.1134 44.3933L73.3058 50.0164ZM71.194 52.8154C71.2384 52.8154 71.2823 52.7913 71.3045 52.7493C71.3378 52.6881 71.3156 52.6109 71.2548 52.5776L62.0105 47.5101C61.9497 47.4769 61.8726 47.499 61.8393 47.5598C61.806 47.6206 61.8282 47.6982 61.889 47.7315L71.1333 52.799C71.1535 52.812 71.1738 52.8154 71.194 52.8154ZM60.5647 50.0198C60.5039 49.9851 60.4263 50.0053 60.3911 50.0661C60.3564 50.1268 60.3766 50.2045 60.4374 50.2392L69.1816 55.3067C69.2019 55.3178 69.224 55.3236 69.2443 55.3236C69.2887 55.3236 69.3311 55.3014 69.3533 55.2609C69.3885 55.1997 69.3682 55.1225 69.307 55.0873L60.5647 50.0198ZM67.4629 57.2155C67.5014 57.2155 67.5386 57.1971 67.5641 57.1658C67.6066 57.1103 67.5955 57.0312 67.5386 56.9888L59.9079 51.2534C59.8529 51.2109 59.7733 51.224 59.7309 51.2794C59.6884 51.3349 59.6995 51.414 59.7569 51.4564L67.3871 57.1914C67.4112 57.2063 67.4368 57.2155 67.4629 57.2155ZM60.9466 38.5055C60.9592 38.5055 60.9722 38.5036 60.9872 38.4997C61.1014 38.4611 61.8041 38.3488 62.2468 38.2822C62.3148 38.2711 62.363 38.2065 62.3539 38.1385C62.3428 38.07 62.2801 38.0242 62.2097 38.0314C62.0954 38.0483 61.0812 38.2012 60.9076 38.26C60.8415 38.2822 60.8063 38.3541 60.8285 38.4206C60.8449 38.4722 60.895 38.5055 60.9466 38.5055ZM60.598 41.0007C60.5999 41.0687 60.6568 41.1222 60.7253 41.1222C60.7267 41.1222 60.7267 41.1222 60.7287 41.1222L62.4551 41.0667C62.5251 41.0648 62.5786 41.006 62.5767 40.9361C62.5752 40.8656 62.527 40.8068 62.446 40.814L60.7195 40.8695C60.6515 40.8734 60.596 40.9303 60.598 41.0007ZM60.7103 43.8421C60.7142 43.9106 60.7692 43.9622 60.8357 43.9622C60.8377 43.9622 60.8396 43.9622 60.8415 43.9622L63.2923 43.8513C63.3627 43.8479 63.4163 43.7886 63.4124 43.7187C63.4085 43.6487 63.3608 43.5971 63.2798 43.5986L60.8285 43.7095C60.76 43.7129 60.7065 43.7722 60.7103 43.8421ZM62.188 46.1106C62.1822 46.0402 62.1156 45.9886 62.0529 45.9944L60.4948 46.1048C60.4244 46.1106 60.3728 46.1695 60.3766 46.2394C60.3819 46.3059 60.4374 46.3575 60.502 46.3575C60.5054 46.3575 60.5073 46.3575 60.5112 46.3575L62.0698 46.2466C62.1397 46.2394 62.1913 46.1806 62.188 46.1106ZM54.5336 46.1733L60.4374 49.6807C60.4576 49.6933 60.4798 49.6991 60.502 49.6991C60.5444 49.6991 60.5869 49.6769 60.611 49.6364C60.6457 49.5756 60.6274 49.498 60.5666 49.4628L54.6624 45.9553C54.6016 45.9206 54.524 45.9389 54.4893 45.9997C54.4541 46.0585 54.4724 46.1362 54.5336 46.1733ZM55.9925 43.6724L60.3911 45.7325C60.408 45.7398 60.4263 45.7436 60.4446 45.7436C60.4928 45.7436 60.5372 45.7157 60.5589 45.6699C60.5888 45.6072 60.5608 45.5314 60.4981 45.502L56.0995 43.4418C56.0368 43.4124 55.9611 43.4404 55.9317 43.5031C55.9018 43.5672 55.9298 43.6429 55.9925 43.6724ZM57.5583 41.4468L60.3988 42.6157C60.4152 42.6215 60.4302 42.6249 60.4465 42.6249C60.4962 42.6249 60.5425 42.5955 60.5628 42.5477C60.5888 42.4831 60.5589 42.4093 60.4948 42.3818L57.6543 41.2124C57.5897 41.1868 57.5159 41.2162 57.4899 41.2809C57.4624 41.3469 57.4937 41.4207 57.5583 41.4468ZM59.3161 38.8392L60.653 39.007C60.6587 39.007 60.664 39.009 60.6698 39.009C60.7325 39.009 60.788 38.9627 60.7952 38.8981C60.8044 38.8281 60.7547 38.7654 60.6862 38.7563L59.3494 38.5884C59.2809 38.5812 59.2163 38.629 59.2072 38.6989C59.198 38.7674 59.2477 38.8301 59.3161 38.8392ZM54.6532 58.2571C52.202 57.7006 48.2494 58.6463 48.2494 58.6463C48.2494 58.6463 49.6422 56.6421 49.9759 53.8021C50.3096 50.9621 48.8064 43.8349 48.8064 43.8349C48.8064 43.8349 47.4696 37.6534 47.582 37.1537C47.6924 36.6522 48.4727 36.3735 50.1992 35.9848C51.9256 35.5956 52.6504 34.9262 52.7054 33.8122C52.7609 32.6982 52.8732 32.0308 52.595 30.583C52.3162 29.1358 50.8685 29.6923 49.5312 29.8587C48.1944 30.0265 47.1373 29.8032 45.6322 28.4664C44.129 27.1291 41.8456 27.5203 39.8963 28.3555C37.9465 29.1908 36.331 29.9711 35.8314 31.3059C35.3294 32.6432 35.4422 35.4258 35.6081 37.0964C35.7759 38.7674 36.8325 39.1011 36.8325 39.1011C37.0558 41.7178 36.5543 42.3302 34.0475 47.0636C31.5413 51.7974 27.9205 55.5835 24.0234 58.8677C20.1244 62.1537 20.2368 67.4426 20.2368 67.4426C20.2368 67.4426 13.8329 71.0074 9.43237 67.9442C5.03133 64.8814 6.98108 57.5878 6.98108 57.5878C2.69289 60.4832 4.14061 66.6093 4.14061 66.6093L2.74786 66.7771C3.41578 73.8489 10.6014 75.1288 10.6014 75.1288L10.0998 76.0749C10.0998 76.0749 11.8817 76.9102 16.1699 75.1842C20.4581 73.4582 21.183 70.4504 21.183 70.4504C23.6342 74.4594 26.6956 77.5227 26.6956 77.5227C26.3064 79.8606 26.9743 81.3657 28.8112 82.2565C30.6486 83.1467 31.2056 83.7592 33.1549 83.7592C35.1046 83.7592 39.6161 83.7592 40.2281 83.7592C40.8405 83.7592 41.3421 82.7006 40.3959 82.0332C39.4497 81.3657 37.1094 81.4207 36.5543 80.9192C35.9973 80.4176 35.1061 79.1932 35.1061 79.1932C35.1061 79.1932 36.9435 78.6362 38.3357 76.4087C39.7285 74.1811 38.5036 71.7872 38.5036 71.7872C39.8408 70.2291 38.2808 66.5538 38.2808 66.5538C40.6747 65.7186 43.4597 63.4356 43.4597 63.4356C44.6291 64.6046 47.025 63.9371 50.6438 62.8231C54.2641 61.7096 54.7087 61.9878 54.7087 61.9878C54.7087 61.9878 55.8227 64.103 56.8243 63.9371C57.8274 63.7693 58.5503 63.6589 58.3825 61.8774C58.2185 60.096 57.1045 58.8141 54.6532 58.2571Z" fill="#F76D45"/>
<path d="M53.261 57.5752C52.134 55.6535 45.7007 43.5436 45.1987 42.7913C44.6971 42.0385 43.9043 41.454 43.4852 40.1596C43.0686 38.8648 42.8178 37.445 42.8178 36.4419C42.8178 35.4389 42.7349 35.2305 43.0686 34.688C43.4023 34.1459 44.1126 33.1853 44.5718 32.6837C45.0309 32.1822 45.4499 31.9739 45.5753 32.5159C45.7007 33.058 46.4106 34.9798 46.4106 34.9798C46.6189 34.3523 47.3293 34.4372 47.58 35.5218C47.8308 36.6078 48.5412 39.3224 48.9173 39.9899C49.2935 40.6573 54.932 49.4281 54.932 49.4281L59.36 51.8914L59.8196 51.4747L65.5705 55.692C65.5705 55.692 62.4513 58.6574 60.0299 60.0352C57.6061 61.4183 54.3895 59.4965 53.261 57.5752ZM93.6535 82.717C92.8602 82.2155 90.9385 81.4651 89.225 81.1295C87.5116 80.7938 85.883 80.545 84.7965 79.376C83.71 78.2065 82.7088 78.9588 81.4969 79.4589C80.285 79.9605 78.3632 79.7521 75.9414 79.3335C73.518 78.9164 67.6712 78.2895 67.6712 78.2895L68.9144 77.9688L70.2185 77.7455L64.1614 68.4737L63.0748 68.9328L62.0843 67.8501C62.0843 67.8501 52.7995 71.9387 50.7118 73.4838C48.6241 75.0294 46.5765 79.0808 49.0832 81.5447C51.59 84.008 54.471 83.9251 56.3522 83.9251C58.2316 83.9251 92.8178 83.9251 93.4857 83.9251C94.1532 83.9289 94.4464 83.2191 93.6535 82.717ZM54.3065 25.4606C54.1869 24.3133 54.4063 22.6558 55.1254 21.182C55.4186 20.8777 56.0421 20.6236 57.35 21.0957C57.7426 22.3032 58.8604 24.7598 61.4998 25.0916C61.9478 25.842 62.243 26.3971 62.4219 26.4063C62.8959 26.4342 63.3406 24.6803 64.5949 24.9036C65.8468 25.1268 65.4856 27.7435 64.6779 28.3835C63.9014 28.9993 64.2371 30.163 64.2646 30.2532C63.9877 31.2857 64.2626 31.9054 64.7053 32.4754C65.2898 33.2277 66.7101 34.3543 66.7101 34.3543L62.4074 42.2893L62.4904 36.6927C62.4904 36.6927 61.3633 34.9798 61.0701 34.5202C60.7769 34.0611 60.2768 34.2694 59.4821 34.4372C58.6888 34.605 56.7245 34.5202 55.7639 32.433C54.8066 30.3472 54.5554 27.841 54.3065 25.4606ZM57.147 24.6875C57.1745 24.9108 57.6061 24.7082 58.4843 24.6875C59.362 24.6673 59.6962 25.0217 59.7994 24.9807C59.9045 24.9388 59.2568 24.1879 58.3994 24.1879C57.5415 24.1879 57.1248 24.5216 57.147 24.6875ZM54.4319 25.0844C54.5963 25.1249 54.7251 24.9166 55.2252 24.8756C55.7268 24.8336 55.9553 24.8129 55.9775 24.5621C55.9978 24.3113 55.2474 24.3943 54.8288 24.5621C54.4097 24.7299 54.347 25.0641 54.4319 25.0844Z" fill="#D78F67"/>
<path d="M67.5497 57.256C67.4962 57.2116 67.4884 57.1326 67.5328 57.0771L73.6598 49.7136C73.7061 49.6605 73.7852 49.6528 73.8387 49.6972C73.8923 49.7415 73.8995 49.8206 73.8556 49.8761L67.7286 57.2396C67.7026 57.269 67.6674 57.2854 67.6307 57.2854C67.6013 57.2854 67.5733 57.2743 67.5497 57.256ZM66.8687 67.2141C66.8413 67.1494 66.7675 67.12 66.7028 67.1475C66.5977 67.1938 56.1198 71.7265 51.4111 73.956C46.5914 76.2389 48.6555 80.8421 48.6777 80.8898C48.6994 80.9361 48.7437 80.9636 48.792 80.9636C48.8103 80.9636 48.8267 80.9597 48.8455 80.9525C48.9082 80.9231 48.9357 80.8474 48.9063 80.7847C48.8233 80.6058 46.929 76.361 51.5177 74.1865C56.223 71.959 66.6956 67.4263 66.8027 67.3819C66.8668 67.3544 66.8967 67.2787 66.8687 67.2141ZM67.6987 78.166C61.142 76.7554 56.1955 78.3208 56.1473 78.3358C56.0807 78.358 56.0441 78.4279 56.0663 78.4944C56.0827 78.548 56.1323 78.5813 56.1859 78.5813C56.1989 78.5813 56.2119 78.5793 56.2249 78.5755C56.2727 78.5591 61.1584 77.0154 67.6452 78.4115C67.7156 78.424 67.7816 78.3821 67.7966 78.3136C67.8096 78.249 67.7672 78.181 67.6987 78.166ZM58.4621 53.3927L55.2363 49.6842C55.19 49.6306 55.1109 49.6253 55.0574 49.6711C55.0039 49.7174 54.9981 49.7965 55.0444 49.85L58.3864 53.6931C58.4105 53.7211 58.4452 53.7375 58.4824 53.7375C58.4862 53.7375 58.4896 53.7375 58.4935 53.7375C58.534 53.7336 58.5711 53.71 58.5913 53.6748L59.947 51.3552L65.4046 40.0507C65.434 39.988 65.408 39.9123 65.3453 39.8809C65.2826 39.8515 65.2069 39.8775 65.1755 39.9402L60.7581 49.0905C60.327 44.7642 60.843 38.6217 60.8488 38.5591C60.8541 38.4886 60.8025 38.4279 60.7345 38.4226C60.666 38.4168 60.6033 38.4684 60.598 38.5369C60.5922 38.6015 60.0463 45.0868 60.5425 49.4483C60.5445 49.4667 60.5517 49.485 60.5609 49.4999L59.7237 51.2351L58.4621 53.3927ZM58.1356 27.214C58.3348 27.214 58.4973 27.052 58.4973 26.8528C58.4973 26.6537 58.3348 26.4911 58.1356 26.4911C57.9364 26.4911 57.7739 26.6537 57.7739 26.8528C57.7725 27.052 57.9345 27.214 58.1356 27.214ZM55.0998 27.3819C55.299 27.3819 55.461 27.2198 55.461 27.0207C55.461 26.8215 55.299 26.659 55.0998 26.659C54.9007 26.659 54.7381 26.8215 54.7381 27.0207C54.7381 27.2198 54.8987 27.3819 55.0998 27.3819ZM54.9889 29.1469C55.1365 29.4271 55.5073 29.6224 56.0036 29.6798C56.0089 29.6798 56.0127 29.6798 56.018 29.6798C56.0807 29.6798 56.1362 29.6316 56.1434 29.567C56.1511 29.497 56.101 29.4343 56.033 29.4271C55.6274 29.3808 55.3193 29.2318 55.2122 29.0288C55.1476 28.9072 55.1567 28.7669 55.2397 28.6102C55.5184 28.0826 55.95 27.0298 55.9684 26.9835C55.9944 26.9189 55.9645 26.8451 55.8984 26.8196C55.8358 26.7921 55.76 26.8234 55.734 26.8876C55.7306 26.8986 55.2879 27.9741 55.015 28.492C54.8616 28.7833 54.9151 29.0085 54.9889 29.1469ZM58.7534 29.8732C58.8976 29.8732 59.0485 29.864 59.2072 29.8457C59.2771 29.8365 59.3253 29.7738 59.3181 29.7054C59.3085 29.6354 59.2458 29.5858 59.1778 29.5949C57.8868 29.7536 57.0804 29.1267 57.0713 29.1209C57.0158 29.0765 56.9367 29.0876 56.8943 29.1411C56.8499 29.1966 56.8591 29.2757 56.9146 29.3181C56.9459 29.3442 57.623 29.8732 58.7534 29.8732ZM56.1859 30.9486C56.1917 30.9501 56.4164 31.0552 56.7578 31.0552C57.1836 31.0552 57.7889 30.8912 58.3734 30.1611C58.4177 30.1056 58.4086 30.0265 58.3531 29.9841C58.2996 29.9417 58.2186 29.9489 58.1761 30.0044C57.2541 31.1569 56.3373 30.7398 56.2968 30.7215C56.236 30.6921 56.1584 30.7181 56.129 30.7808C56.0976 30.8416 56.1232 30.9173 56.1859 30.9486ZM58.2075 28.2099C58.2224 28.2157 58.2388 28.2191 58.2538 28.2191C58.3034 28.2191 58.3512 28.1877 58.3719 28.138C58.3975 28.0734 58.3642 27.9996 58.2996 27.9741C57.6172 27.7084 57.3553 26.8138 57.352 26.8046C57.3312 26.7385 57.2632 26.6975 57.1947 26.7183C57.1287 26.7366 57.0882 26.8065 57.1084 26.875C57.1195 26.9155 57.405 27.8984 58.2075 28.2099ZM63.7664 27.4981C63.7259 27.5555 63.7408 27.6346 63.7978 27.6731C63.8199 27.6881 63.844 27.6953 63.8701 27.6953C63.9106 27.6953 63.9492 27.677 63.9733 27.6399C64.2091 27.2989 64.0673 27.0019 63.9545 26.7641C63.846 26.5374 63.7852 26.3899 63.8937 26.2148C64.1686 25.774 64.4584 25.6872 64.4657 25.6853C64.5322 25.667 64.5727 25.6004 64.5559 25.5324C64.5395 25.4639 64.4695 25.4234 64.403 25.4403C64.3861 25.4437 64.0157 25.5416 63.6782 26.0798C63.4901 26.3807 63.6208 26.6537 63.7259 26.8731C63.8479 27.1239 63.912 27.2878 63.7664 27.4981ZM61.0721 34.524C61.155 34.6533 61.3026 34.8819 61.4738 35.1437C61.7911 34.6128 62.1436 33.9839 62.2208 33.6888C62.3669 33.1245 62.0125 32.9162 61.4058 33.5431C61.0682 33.8913 60.6477 34.1238 60.3414 34.2602C60.666 34.2159 60.9042 34.2583 61.0721 34.524ZM63.8846 18.2591C63.9159 18.2793 66.985 20.3304 66.4391 24.1069C66.4299 24.1749 66.4776 24.2395 66.5461 24.2506C66.5514 24.2525 66.5591 24.2525 66.5644 24.2525C66.6252 24.2525 66.6807 24.2062 66.6898 24.1435C67.2579 20.205 64.0562 18.0696 64.023 18.0474C63.9641 18.0083 63.8865 18.0252 63.8479 18.084C63.8108 18.1414 63.8277 18.2205 63.8846 18.2591ZM46.5341 35.0589C46.5177 34.9909 46.4511 34.9484 46.3831 34.9648C46.3146 34.9812 46.2722 35.0478 46.2891 35.1162L46.7684 37.1832C46.7814 37.242 46.835 37.2811 46.8919 37.2811C46.9015 37.2811 46.9107 37.2792 46.9218 37.2772C46.9898 37.2608 47.0322 37.1943 47.0158 37.1263L46.5341 35.0589ZM44.8466 32.4774C44.7782 32.488 44.7304 32.5526 44.7396 32.6211L45.3038 36.3793C45.3135 36.442 45.367 36.4863 45.4297 36.4863C45.435 36.4863 45.4422 36.4863 45.448 36.4844C45.516 36.4733 45.5642 36.4087 45.5551 36.3407L44.9904 32.5825C44.9812 32.514 44.9185 32.4677 44.8466 32.4774ZM44.1016 33.3531C44.0316 33.3604 43.9815 33.4231 43.9892 33.4915L44.3451 36.916C44.3523 36.9802 44.4059 37.0284 44.4705 37.0284C44.4739 37.0284 44.4797 37.0284 44.4835 37.0284C44.5534 37.0211 44.6031 36.9585 44.5959 36.89L44.24 33.4655C44.2323 33.3975 44.1696 33.3459 44.1016 33.3531ZM43.4635 34.3138C43.3931 34.3157 43.3377 34.3731 43.3396 34.443L43.4023 37.5338C43.4042 37.6018 43.4597 37.6572 43.5296 37.6572H43.5315C43.6015 37.6553 43.6569 37.5979 43.655 37.528L43.5923 34.4372C43.5923 34.3673 43.5315 34.3138 43.4635 34.3138ZM45.7981 29.9986C45.5363 29.9986 45.3246 30.2108 45.3246 30.4726C45.3246 30.7345 45.5363 30.9467 45.7981 30.9467C46.0605 30.9467 46.2722 30.7345 46.2722 30.4726C46.2722 30.2108 46.0605 29.9986 45.7981 29.9986ZM52.5931 30.5831C52.3978 29.5689 51.6286 29.5395 50.7268 29.6687C50.9496 29.9378 52.5839 31.8225 52.7681 32.0366C52.7537 31.6252 52.7054 31.168 52.5931 30.5831ZM50.6564 35.7856C50.7451 35.7856 50.8372 35.7837 50.9293 35.7779C50.9997 35.7745 51.0532 35.7152 51.0494 35.6453C51.0455 35.5753 50.9848 35.5218 50.9168 35.5252C48.5836 35.6564 47.785 34.0244 47.7517 33.954C47.7218 33.8913 47.6466 33.8638 47.5839 33.8933C47.5212 33.9227 47.4933 33.9984 47.5227 34.0611C47.5304 34.0799 48.3565 35.7856 50.6564 35.7856ZM36.9912 39.173C37.1981 39.1841 37.3954 39.1894 37.5834 39.1894C39.6861 39.1894 40.6028 38.5055 40.9717 38.072C41.3074 37.6794 41.4453 37.2126 41.3532 36.7921C41.1618 35.9124 40.3868 31.9903 40.3795 31.9498C40.3665 31.8813 40.3 31.8374 40.23 31.8499C40.162 31.863 40.1177 31.9295 40.1307 31.9994C40.1379 32.038 40.9124 35.9645 41.1063 36.8456C41.182 37.189 41.0619 37.5743 40.7779 37.908C40.407 38.3449 39.4223 39.0548 37.0042 38.9203C36.9343 38.915 36.875 38.9699 36.8716 39.0403C36.8697 39.1103 36.9232 39.1691 36.9912 39.173ZM43.4172 63.29C43.397 63.2827 41.4178 62.5835 40.8276 59.6813C40.3868 57.514 39.9976 54.1026 39.9942 54.0678C39.9865 53.9974 39.9238 53.9478 39.8539 53.9569C39.784 53.9641 39.7338 54.0268 39.743 54.0973C39.7468 54.132 40.136 57.555 40.5806 59.7329C41.2003 62.7754 43.2494 63.5002 43.3377 63.5296C43.3507 63.5335 43.3657 63.5369 43.3787 63.5369C43.4322 63.5369 43.4799 63.5036 43.4983 63.4506C43.5185 63.384 43.4838 63.3121 43.4172 63.29ZM48.1004 58.521L47.8882 58.5398L47.4566 54.6523C47.4489 54.5838 47.3862 54.5342 47.3163 54.54C47.2463 54.5472 47.1962 54.6099 47.2039 54.6798L47.65 58.6888C47.6577 58.7534 47.7112 58.8016 47.7754 58.8016C47.7792 58.8016 47.7831 58.8016 47.7865 58.8016L48.1207 58.7737C48.1906 58.7684 48.2422 58.7076 48.2369 58.6372C48.2311 58.5673 48.1723 58.5176 48.1004 58.521ZM38.2991 71.6913C38.3174 71.7434 38.3652 71.7762 38.4187 71.7762C38.4317 71.7762 38.4467 71.7747 38.4597 71.7689C38.5258 71.7468 38.561 71.673 38.5368 71.6084C38.3266 71.0017 37.9596 70.1794 37.5449 69.3201C37.7754 69.145 38.3468 68.6579 38.7307 67.9075C38.546 67.2232 38.3415 66.7053 38.2899 66.5833L38.2417 66.5982C38.2104 66.55 38.1496 66.5264 38.0941 66.5466C37.1981 66.8731 36.3976 67.013 36.3899 67.013C36.3865 67.013 36.3826 67.0168 36.3788 67.0168C35.7576 65.831 35.2522 64.9238 35.2411 64.9036C35.2079 64.8428 35.1302 64.8206 35.0694 64.8539C35.0087 64.8867 34.9865 64.9643 35.0217 65.0251C35.0492 65.0748 37.5873 69.6374 38.2991 71.6913ZM57.2097 63.7823C57.2208 63.7857 57.2319 63.7857 57.243 63.7857C57.2984 63.7857 57.35 63.7491 57.3645 63.6936C57.5969 62.8473 57.1509 61.9937 57.132 61.9585C57.0993 61.8977 57.0235 61.8736 56.9608 61.9069C56.9001 61.9401 56.876 62.0159 56.9092 62.0785C56.9126 62.0858 57.3278 62.8805 57.121 63.629C57.1026 63.6936 57.1431 63.7621 57.2097 63.7823ZM58.1631 63.2827C58.1723 63.2842 58.1819 63.2842 58.1891 63.2842C58.248 63.2842 58.2996 63.2437 58.3126 63.1848C58.5137 62.2353 58.1781 61.5196 58.1631 61.4883C58.1337 61.4256 58.058 61.3995 57.9953 61.4294C57.9326 61.4589 57.907 61.5346 57.9364 61.5973C57.9403 61.6045 58.248 62.2681 58.0657 63.1313C58.0527 63.1993 58.0951 63.2678 58.1631 63.2827ZM38.3136 81.6624C37.5227 81.4487 36.8953 81.4357 36.2905 81.4227C35.8681 81.4135 35.4678 81.4063 35.0473 81.3267C34.2728 81.1792 33.0054 80.1023 32.4947 79.6451C32.5612 79.647 32.6273 79.647 32.6939 79.647C33.4206 79.647 34.212 79.5766 34.9715 79.3741C35.04 79.3558 35.0786 79.2873 35.0603 79.2193C35.042 79.1508 34.9735 79.1141 34.9055 79.1286C32.5723 79.7541 29.9291 79.0809 29.9016 79.0736C29.8331 79.0548 29.7651 79.0953 29.7463 79.1638C29.728 79.2318 29.7685 79.3003 29.837 79.3186C29.8534 79.3225 30.8179 79.5694 32.1036 79.6321C32.2439 79.7647 33.9627 81.3803 34.9976 81.576C35.4403 81.659 35.8497 81.6682 36.2833 81.6773C36.8731 81.6903 37.4836 81.7014 38.2456 81.9078C39.4575 82.2358 39.3022 83.5784 39.295 83.6358C39.2858 83.7057 39.3355 83.7684 39.4039 83.7775C39.4092 83.7775 39.415 83.7795 39.4203 83.7795C39.483 83.7795 39.5366 83.7332 39.5457 83.669C39.5496 83.6502 39.7396 82.0477 38.3136 81.6624ZM36.7554 82.7412C36.7313 82.6766 36.6575 82.6438 36.5929 82.6674C36.5283 82.6934 36.495 82.7653 36.5191 82.8318L36.8253 83.6391C36.8437 83.6893 36.8919 83.7206 36.9435 83.7206C36.958 83.7206 36.9729 83.7187 36.9879 83.7129C37.052 83.6874 37.0853 83.6155 37.0616 83.549L36.7554 82.7412ZM38.4226 82.5218C38.3546 82.5256 38.2952 82.5753 38.2914 82.6452L38.2639 83.5639C38.262 83.6338 38.3174 83.6912 38.3859 83.6946C38.3874 83.6946 38.3874 83.6946 38.3893 83.6946C38.4578 83.6946 38.5127 83.6411 38.5166 83.5711L38.5441 82.6529C38.5479 82.5811 38.4925 82.5237 38.4226 82.5218ZM20.4138 67.7214C20.3974 67.6529 20.3289 67.6124 20.2609 67.6288C20.1924 67.6457 20.1519 67.7137 20.1683 67.7822C20.1722 67.7966 20.5372 69.2796 20.9819 70.3087C21.0021 70.3564 21.0484 70.3839 21.0981 70.3839C21.1145 70.3839 21.1314 70.3805 21.1478 70.3728C21.2124 70.3453 21.2418 70.2715 21.2143 70.2069C20.7788 69.1985 20.4176 67.7359 20.4138 67.7214ZM66.0851 65.7205C67.5053 67.4335 73.437 65.8459 82.6259 60.7929C74.5636 65.0936 66.0851 65.7205 66.0851 65.7205Z" fill="#242330"/>
<mask id="mask0_110_2" style="mask-type:alpha" maskUnits="userSpaceOnUse" x="101" y="34" width="286" height="39">
<path d="M127.52 45.68C127.653 46.48 127.747 47.3467 127.8 48.28C127.88 49.2133 127.88 50.3467 127.8 51.68C127.72 52.9867 127.533 54.6 127.24 56.52C126.84 59.1067 125.787 61.28 124.08 63.04C122.373 64.7733 120.227 65.9067 117.64 66.44C116.92 66.6 116.08 66.72 115.12 66.8C114.16 66.8533 113.2 66.9067 112.24 66.96C111.307 66.9867 110.467 67.0267 109.72 67.08C109.053 67.2133 108.253 67.3067 107.32 67.36C106.387 67.4133 105.507 67.4 104.68 67.32C103.853 67.24 103.253 67.0933 102.88 66.88C103.093 66.5067 103.267 65.9467 103.4 65.2C103.533 64.4267 103.64 63.5867 103.72 62.68C103.8 61.7733 103.827 60.9067 103.8 60.08L103.68 46.52C103.68 45.4267 103.667 44.4267 103.64 43.52C103.64 42.6133 103.613 41.9067 103.56 41.4C103.507 40.84 103.293 40.3467 102.92 39.92C102.573 39.4933 102.32 39.0667 102.16 38.64C101.733 37.4667 101.547 36.32 101.6 35.2C101.733 35.2267 102.027 35.2667 102.48 35.32C102.96 35.3467 103.507 35.3867 104.12 35.44C104.787 35.4667 105.827 35.5067 107.24 35.56C108.68 35.6133 110.147 35.6667 111.64 35.72C111.64 35.72 111.853 35.7333 112.28 35.76C112.733 35.76 113.293 35.7867 113.96 35.84C114.627 35.8933 115.32 35.9733 116.04 36.08C116.76 36.16 117.387 36.2667 117.92 36.4C119.653 36.8533 121.107 37.48 122.28 38.28C123.48 39.0533 124.44 39.8933 125.16 40.8C125.907 41.7067 126.467 42.6 126.84 43.48C127.213 44.3333 127.44 45.0667 127.52 45.68ZM113.56 59.4C114.653 59.1333 115.68 58.6133 116.64 57.84C117.627 57.04 118.4 55.9733 118.96 54.64C119.547 53.28 119.76 51.6267 119.6 49.68C119.413 47.1467 118.747 45.3867 117.6 44.4C116.48 43.4133 115.013 42.9067 113.2 42.88C112.693 42.8533 112.293 43.1867 112 43.88C111.707 44.5733 111.507 45.6933 111.4 47.24C111.347 48.2533 111.307 49.0133 111.28 49.52C111.253 50 111.24 50.4 111.24 50.72C111.267 51.04 111.267 51.4533 111.24 51.96C111.24 51.96 111.24 52.2 111.24 52.68C111.267 53.16 111.307 53.76 111.36 54.48C111.413 55.1733 111.48 55.8933 111.56 56.64C111.64 57.36 111.733 57.9733 111.84 58.48C111.973 59.04 112.227 59.36 112.6 59.44C112.973 59.4933 113.293 59.48 113.56 59.4ZM153.252 54.8C153.492 57.04 153.319 58.96 152.732 60.56C152.146 62.16 151.279 63.48 150.132 64.52C149.012 65.56 147.746 66.3333 146.332 66.84C144.946 67.32 143.559 67.56 142.172 67.56C140.812 67.56 139.426 67.32 138.012 66.84C136.626 66.3333 135.372 65.56 134.252 64.52C133.159 63.48 132.306 62.16 131.692 60.56C131.106 58.96 130.932 57.04 131.172 54.8C131.412 52.7467 132.026 50.9467 133.012 49.4C134.026 47.8533 135.306 46.64 136.852 45.76C138.426 44.8533 140.146 44.3467 142.012 44.24C142.119 44.2133 142.226 44.1333 142.332 44C142.466 43.84 142.679 43.7067 142.972 43.6C143.292 43.4667 143.772 43.4267 144.412 43.48C145.932 43.9067 147.319 44.64 148.572 45.68C149.826 46.72 150.866 48.0133 151.692 49.56C152.546 51.1067 153.066 52.8533 153.252 54.8ZM141.812 61.16C142.666 61.16 143.399 60.96 144.012 60.56C144.626 60.16 145.119 59.6533 145.492 59.04C145.866 58.4 146.132 57.7333 146.292 57.04C146.479 56.3467 146.572 55.72 146.572 55.16C146.572 54.0133 146.386 53.12 146.012 52.48C145.639 51.84 144.786 51.2667 143.452 50.76C143.079 50.6 142.826 50.3867 142.692 50.12C142.559 49.8533 142.359 49.7067 142.092 49.68C141.212 49.5733 140.466 49.8133 139.852 50.4C139.239 50.9867 138.772 51.7733 138.452 52.76C138.132 53.7467 137.972 54.8133 137.972 55.96C137.972 57.1067 138.186 58.0667 138.612 58.84C139.066 59.6133 139.586 60.2 140.172 60.6C140.786 60.9733 141.332 61.16 141.812 61.16ZM178.282 43.8C178.335 45.0267 178.349 46.2133 178.322 47.36C178.322 48.48 178.322 49.32 178.322 49.88C178.322 50.1733 178.322 50.8667 178.322 51.96C178.349 53.0533 178.362 54.3733 178.362 55.92C178.389 57.4667 178.389 59.0667 178.362 60.72C178.335 62.3733 178.269 63.9067 178.162 65.32C178.055 66.8667 177.722 68.2267 177.162 69.4C176.629 70.5733 175.842 71.44 174.802 72C173.762 72.56 172.429 72.72 170.802 72.48C169.575 72.2933 168.642 71.92 168.002 71.36C167.389 70.8 166.989 70.1467 166.802 69.4C166.642 68.68 166.642 67.9333 166.802 67.16C166.989 66.4133 167.255 65.7467 167.602 65.16C167.842 65.4533 168.162 65.7733 168.562 66.12C168.989 66.44 169.442 66.6933 169.922 66.88C170.429 67.04 170.909 67.0667 171.362 66.96C171.655 66.88 171.882 66.7333 172.042 66.52C172.202 66.28 172.255 66 172.202 65.68C172.149 65.36 171.762 65 171.042 64.6C170.349 64.1733 169.442 63.9867 168.322 64.04C167.895 64.0667 167.562 64.0933 167.322 64.12C167.082 64.1467 166.802 64.16 166.482 64.16C164.642 64.16 162.949 63.7867 161.402 63.04C159.855 62.2933 158.629 61.1467 157.722 59.6C156.815 58.0533 156.415 56.08 156.522 53.68C156.602 52.1333 156.975 50.7467 157.642 49.52C158.309 48.2667 159.162 47.2133 160.202 46.36C161.269 45.48 162.389 44.8267 163.562 44.4C164.762 43.9467 165.922 43.76 167.042 43.84C167.175 43.84 167.442 43.88 167.842 43.96C168.242 44.04 168.642 44.12 169.042 44.2C169.442 44.2533 169.709 44.2933 169.842 44.32C170.775 44.48 171.815 44.5067 172.962 44.4C174.135 44.2667 175.135 44.12 175.962 43.96C176.495 43.88 177.015 43.84 177.522 43.84C178.029 43.8133 178.282 43.8 178.282 43.8ZM166.402 50.8C165.335 50.9067 164.535 51.3067 164.002 52C163.495 52.6933 163.362 53.56 163.602 54.6C163.709 55.08 163.962 55.56 164.362 56.04C164.789 56.4933 165.295 56.8533 165.882 57.12C166.469 57.3867 167.055 57.4933 167.642 57.44C168.229 57.3867 168.749 57.2933 169.202 57.16C169.655 57 170.015 56.68 170.282 56.2C170.549 55.72 170.682 54.96 170.682 53.92C170.682 52.88 170.469 52.1333 170.042 51.68C169.642 51.2 169.109 50.92 168.442 50.84C167.802 50.7333 167.122 50.72 166.402 50.8ZM186.08 43.2C185.173 43.2267 184.36 42.9733 183.64 42.44C182.947 41.9067 182.413 41.2533 182.04 40.48C181.693 39.68 181.56 38.92 181.64 38.2C181.773 37.1067 182.267 36.3333 183.12 35.88C183.973 35.4267 184.867 35.1867 185.8 35.16C187.133 35.1067 188.173 35.4533 188.92 36.2C189.667 36.9467 190.04 37.8 190.04 38.76C190.04 39.4 189.893 40.0533 189.6 40.72C189.333 41.3867 188.907 41.96 188.32 42.44C187.733 42.8933 186.987 43.1467 186.08 43.2ZM190.32 62.96C190.347 63.44 190.493 63.8533 190.76 64.2C191.053 64.52 191.4 64.8267 191.8 65.12C191.613 65.36 191.373 65.6133 191.08 65.88C190.787 66.1467 190.347 66.4 189.76 66.64C189.2 66.8533 188.387 67.0267 187.32 67.16C186.973 67.1867 186.533 67.1467 186 67.04C185.467 66.96 184.933 66.7067 184.4 66.28C183.893 65.8267 183.48 65.12 183.16 64.16C182.84 63.1733 182.707 61.8267 182.76 60.12C182.787 59.8267 182.787 59.2533 182.76 58.4C182.76 57.5467 182.747 56.5333 182.72 55.36C182.72 54.1867 182.707 52.9733 182.68 51.72C182.68 50.4667 182.667 49.3067 182.64 48.24C182.64 47.1467 182.627 46.2667 182.6 45.6C182.6 44.9067 182.6 44.56 182.6 44.56C182.84 44.5333 183.24 44.5067 183.8 44.48C184.387 44.4267 185.027 44.4267 185.72 44.48C186.413 44.5333 187.08 44.6667 187.72 44.88C188.387 45.0667 188.947 45.3733 189.4 45.8C189.88 46.2267 190.16 46.8 190.24 47.52C190.373 48.5333 190.427 49.8933 190.4 51.6C190.373 53.28 190.333 55.12 190.28 57.12C190.227 59.0933 190.24 61.04 190.32 62.96ZM215.158 56.96C215.825 57.4133 216.252 58.0667 216.438 58.92C216.652 59.7467 216.625 60.6533 216.358 61.64C216.118 62.6267 215.625 63.5733 214.878 64.48C214.132 65.36 213.118 66.0933 211.838 66.68C210.585 67.2667 209.065 67.5733 207.278 67.6C205.785 67.6267 204.318 67.44 202.878 67.04C201.465 66.64 200.172 66.0267 198.998 65.2C197.852 64.3733 196.918 63.3067 196.198 62C195.478 60.6933 195.078 59.1333 194.998 57.32C194.972 56.9467 194.972 56.56 194.998 56.16C195.025 55.76 195.052 55.3467 195.078 54.92C195.078 54.8133 195.078 54.7067 195.078 54.6C195.105 54.4933 195.132 54.3867 195.158 54.28C195.425 52.68 195.972 51.2133 196.798 49.88C197.652 48.5467 198.692 47.4133 199.918 46.48C201.145 45.5467 202.452 44.8667 203.838 44.44C205.252 43.9867 206.638 43.8267 207.998 43.96C210.105 44.1733 211.732 44.7333 212.878 45.64C214.052 46.5467 214.812 47.6667 215.158 49C215.532 50.3067 215.545 51.72 215.198 53.24C215.012 53.9867 214.585 54.7333 213.918 55.48C213.278 56.2 212.478 56.8533 211.518 57.44C210.558 58 209.532 58.44 208.438 58.76C207.372 59.0533 206.332 59.1733 205.318 59.12C204.812 59.0933 204.545 59.2533 204.518 59.6C204.492 59.92 204.638 60.28 204.958 60.68C205.278 61.0533 205.705 61.3067 206.238 61.44C207.492 61.7067 208.665 61.72 209.758 61.48C210.878 61.2133 211.732 60.8533 212.318 60.4C212.798 60.0267 213.305 59.5333 213.838 58.92C214.372 58.28 214.812 57.6267 215.158 56.96ZM206.398 52.92C207.012 52.8667 207.545 52.68 207.998 52.36C208.478 52.0133 208.718 51.6533 208.718 51.28C208.745 50.7467 208.612 50.32 208.318 50C208.052 49.6533 207.585 49.4933 206.918 49.52C206.172 49.5467 205.452 49.6533 204.758 49.84C204.065 50.0267 203.652 50.4133 203.518 51C203.438 51.4 203.558 51.7467 203.878 52.04C204.198 52.3333 204.598 52.56 205.078 52.72C205.558 52.8533 205.998 52.92 206.398 52.92ZM263.619 48.8C263.912 49.0933 264.125 49.5333 264.259 50.12C264.419 50.68 264.445 51.3067 264.339 52C264.259 52.5867 264.059 53.1867 263.739 53.8C263.419 54.4133 262.939 54.9467 262.299 55.4C261.792 55.7467 261.419 56.32 261.179 57.12C260.939 57.8933 260.779 58.68 260.699 59.48C260.592 60.3867 260.352 61.32 259.979 62.28C259.632 63.24 259.085 64.0933 258.339 64.84C257.752 65.5333 256.899 66.1733 255.779 66.76C254.685 67.32 253.192 67.5867 251.299 67.56C250.232 67.5333 248.979 67.3467 247.539 67C246.125 66.6533 244.685 66.0933 243.219 65.32C241.779 64.52 240.459 63.4533 239.259 62.12C238.059 60.7867 237.139 59.1333 236.499 57.16C235.859 55.1867 235.672 52.84 235.939 50.12C236.179 47.5333 236.819 45.2933 237.859 43.4C238.925 41.5067 240.245 39.9467 241.819 38.72C243.392 37.4933 245.085 36.5733 246.899 35.96C248.712 35.32 250.512 34.9867 252.299 34.96C253.872 34.9067 255.245 35.1467 256.419 35.68C257.592 36.2133 258.525 36.9067 259.219 37.76C259.939 38.5867 260.419 39.48 260.659 40.44C260.925 41.3733 260.925 42.2267 260.659 43C260.445 43.6667 260.139 44.2133 259.739 44.64C259.365 45.0667 258.952 45.36 258.499 45.52C257.939 45.7333 257.365 45.7733 256.779 45.64C256.192 45.48 255.685 45.1467 255.259 44.64C255.712 44.2933 255.845 43.92 255.659 43.52C255.499 43.0933 255.085 42.7467 254.419 42.48C253.752 42.1867 252.899 42.08 251.859 42.16C251.059 42.2133 250.205 42.44 249.299 42.84C248.419 43.24 247.579 43.8 246.779 44.52C246.005 45.24 245.365 46.12 244.859 47.16C244.352 48.2 244.072 49.3867 244.019 50.72C243.939 52.56 244.099 54.0533 244.499 55.2C244.925 56.3467 245.485 57.2133 246.179 57.8C246.872 58.3867 247.619 58.7867 248.419 59C249.219 59.2133 249.992 59.32 250.739 59.32C251.379 59.32 251.899 59.12 252.299 58.72C252.725 58.32 252.899 57.84 252.819 57.28C252.739 56.72 252.259 56.1867 251.379 55.68C250.552 55.2267 250.019 54.7867 249.779 54.36C249.539 53.9333 249.339 53.5067 249.179 53.08C248.912 52.3867 248.685 51.64 248.499 50.84C248.312 50.04 248.232 49.36 248.259 48.8C248.472 48.88 249.019 49.0133 249.899 49.2C250.779 49.36 251.792 49.5067 252.939 49.64C254.112 49.7733 255.219 49.8533 256.259 49.88C257.352 49.88 258.405 49.8533 259.419 49.8C260.432 49.72 261.312 49.6 262.059 49.44C262.832 49.28 263.352 49.0667 263.619 48.8ZM289.657 59.76C289.683 60.3467 289.723 61.0667 289.777 61.92C289.857 62.7733 290.03 63.6 290.297 64.4C290.563 65.2 290.99 65.84 291.577 66.32C290.91 66.7733 290.23 67.0933 289.537 67.28C288.843 67.4933 288.163 67.5467 287.497 67.44C287.31 67.3867 287.11 67.32 286.897 67.24C286.683 67.1867 286.39 67.1067 286.017 67C285.403 66.8133 284.683 66.7733 283.857 66.88C283.03 66.9867 282.163 67.12 281.257 67.28C280.377 67.4667 279.51 67.56 278.657 67.56C277.27 67.56 275.883 67.32 274.497 66.84C273.11 66.3333 271.857 65.56 270.737 64.52C269.617 63.48 268.763 62.16 268.177 60.56C267.59 58.96 267.417 57.04 267.657 54.8C267.817 53.2533 268.257 51.84 268.977 50.56C269.697 49.2533 270.577 48.1333 271.617 47.2C272.683 46.24 273.803 45.5067 274.977 45C276.177 44.4667 277.337 44.2133 278.457 44.24C279.31 44.2667 279.963 44.2933 280.417 44.32C280.897 44.3467 281.51 44.4133 282.257 44.52C282.71 44.5733 283.283 44.5067 283.977 44.32C284.67 44.1333 285.363 43.9333 286.057 43.72C286.777 43.48 287.39 43.36 287.897 43.36C288.67 43.3333 289.217 43.36 289.537 43.44C289.857 43.4933 290.123 43.5467 290.337 43.6C290.177 44.08 290.043 44.8 289.937 45.76C289.83 46.72 289.75 47.8133 289.697 49.04C289.67 50.24 289.643 51.4933 289.617 52.8C289.59 54.1067 289.577 55.36 289.577 56.56C289.603 57.76 289.63 58.8267 289.657 59.76ZM274.617 56.08C274.67 57.4133 274.91 58.4533 275.337 59.2C275.79 59.92 276.323 60.4267 276.937 60.72C277.577 61.0133 278.19 61.16 278.777 61.16C279.95 61.1867 280.817 60.7333 281.377 59.8C281.937 58.8667 282.203 57.5733 282.177 55.92C282.177 55.4667 282.123 54.9333 282.017 54.32C281.937 53.7067 281.777 53.1067 281.537 52.52C281.323 51.9333 281.017 51.44 280.617 51.04C280.243 50.64 279.75 50.44 279.137 50.44C277.91 50.44 276.83 50.8933 275.897 51.8C274.99 52.7067 274.563 54.1333 274.617 56.08ZM295.444 63.72C295.444 63.5067 295.444 62.9333 295.444 62C295.444 61.04 295.444 59.8533 295.444 58.44C295.444 57.0267 295.431 55.48 295.404 53.8C295.404 52.0933 295.404 50.3733 295.404 48.64C295.404 46.9067 295.391 45.2667 295.364 43.72C295.364 42.1467 295.351 40.7867 295.324 39.64C295.297 38.5467 295.204 37.64 295.044 36.92C294.884 36.1733 294.791 35.72 294.764 35.56C295.084 35.5067 295.564 35.4933 296.204 35.52C296.844 35.52 297.551 35.6 298.324 35.76C299.124 35.8933 299.884 36.12 300.604 36.44C301.324 36.7333 301.924 37.16 302.404 37.72C302.884 38.2533 303.137 38.9333 303.164 39.76C303.191 40.2667 303.204 41.16 303.204 42.44C303.231 43.6933 303.244 45.1733 303.244 46.88C303.271 48.56 303.297 50.2933 303.324 52.08C303.351 53.84 303.364 55.5067 303.364 57.08C303.391 58.6533 303.404 59.9733 303.404 61.04C303.431 62.08 303.444 62.6933 303.444 62.88C303.444 63.44 303.591 63.9867 303.884 64.52C304.204 65.0267 304.537 65.3467 304.884 65.48C304.724 65.6933 304.364 65.9733 303.804 66.32C303.244 66.6667 302.591 66.9867 301.844 67.28C301.124 67.5733 300.391 67.76 299.644 67.84C299.031 67.8933 298.391 67.7467 297.724 67.4C297.084 67.08 296.537 66.6 296.084 65.96C295.657 65.32 295.444 64.5733 295.444 63.72ZM308.764 63.72C308.764 63.5067 308.764 62.9333 308.764 62C308.764 61.04 308.764 59.8533 308.764 58.44C308.764 57.0267 308.751 55.48 308.724 53.8C308.724 52.0933 308.724 50.3733 308.724 48.64C308.724 46.9067 308.711 45.2667 308.684 43.72C308.684 42.1467 308.671 40.7867 308.644 39.64C308.618 38.5467 308.524 37.64 308.364 36.92C308.204 36.1733 308.111 35.72 308.084 35.56C308.404 35.5067 308.884 35.4933 309.524 35.52C310.164 35.52 310.871 35.6 311.644 35.76C312.444 35.8933 313.204 36.12 313.924 36.44C314.644 36.7333 315.244 37.16 315.724 37.72C316.204 38.2533 316.458 38.9333 316.484 39.76C316.511 40.2667 316.524 41.16 316.524 42.44C316.551 43.6933 316.564 45.1733 316.564 46.88C316.591 48.56 316.618 50.2933 316.644 52.08C316.671 53.84 316.684 55.5067 316.684 57.08C316.711 58.6533 316.724 59.9733 316.724 61.04C316.751 62.08 316.764 62.6933 316.764 62.88C316.764 63.44 316.911 63.9867 317.204 64.52C317.524 65.0267 317.858 65.3467 318.204 65.48C318.044 65.6933 317.684 65.9733 317.124 66.32C316.564 66.6667 315.911 66.9867 315.164 67.28C314.444 67.5733 313.711 67.76 312.964 67.84C312.351 67.8933 311.711 67.7467 311.044 67.4C310.404 67.08 309.858 66.6 309.404 65.96C308.978 65.32 308.764 64.5733 308.764 63.72ZM341.565 56.96C342.231 57.4133 342.658 58.0667 342.845 58.92C343.058 59.7467 343.031 60.6533 342.765 61.64C342.525 62.6267 342.031 63.5733 341.285 64.48C340.538 65.36 339.525 66.0933 338.245 66.68C336.991 67.2667 335.471 67.5733 333.685 67.6C332.191 67.6267 330.725 67.44 329.285 67.04C327.871 66.64 326.578 66.0267 325.405 65.2C324.258 64.3733 323.325 63.3067 322.605 62C321.885 60.6933 321.485 59.1333 321.405 57.32C321.378 56.9467 321.378 56.56 321.405 56.16C321.431 55.76 321.458 55.3467 321.485 54.92C321.485 54.8133 321.485 54.7067 321.485 54.6C321.511 54.4933 321.538 54.3867 321.565 54.28C321.831 52.68 322.378 51.2133 323.205 49.88C324.058 48.5467 325.098 47.4133 326.325 46.48C327.551 45.5467 328.858 44.8667 330.245 44.44C331.658 43.9867 333.045 43.8267 334.405 43.96C336.511 44.1733 338.138 44.7333 339.285 45.64C340.458 46.5467 341.218 47.6667 341.565 49C341.938 50.3067 341.951 51.72 341.605 53.24C341.418 53.9867 340.991 54.7333 340.325 55.48C339.685 56.2 338.885 56.8533 337.925 57.44C336.965 58 335.938 58.44 334.845 58.76C333.778 59.0533 332.738 59.1733 331.725 59.12C331.218 59.0933 330.951 59.2533 330.925 59.6C330.898 59.92 331.045 60.28 331.365 60.68C331.685 61.0533 332.111 61.3067 332.645 61.44C333.898 61.7067 335.071 61.72 336.165 61.48C337.285 61.2133 338.138 60.8533 338.725 60.4C339.205 60.0267 339.711 59.5333 340.245 58.92C340.778 58.28 341.218 57.6267 341.565 56.96ZM332.805 52.92C333.418 52.8667 333.951 52.68 334.405 52.36C334.885 52.0133 335.125 51.6533 335.125 51.28C335.151 50.7467 335.018 50.32 334.725 50C334.458 49.6533 333.991 49.4933 333.325 49.52C332.578 49.5467 331.858 49.6533 331.165 49.84C330.471 50.0267 330.058 50.4133 329.925 51C329.845 51.4 329.965 51.7467 330.285 52.04C330.605 52.3333 331.005 52.56 331.485 52.72C331.965 52.8533 332.405 52.92 332.805 52.92ZM359.049 43.84C359.583 43.7067 360.076 43.84 360.529 44.24C360.983 44.64 361.383 45.1867 361.729 45.88C362.103 46.5467 362.409 47.24 362.649 47.96C362.889 48.6533 363.076 49.24 363.209 49.72C363.343 50.2 363.409 50.44 363.409 50.44C363.409 50.44 363.089 50.5067 362.449 50.64C361.836 50.7467 361.063 50.9733 360.129 51.32C359.223 51.64 358.316 52.1333 357.409 52.8C356.876 53.2 356.369 53.68 355.889 54.24C355.409 54.8 354.996 55.52 354.649 56.4C354.303 57.2533 354.049 58.3867 353.889 59.8C353.809 60.52 353.796 61.2667 353.849 62.04C353.903 62.8133 353.929 63.4667 353.929 64C353.956 64.48 354.023 64.8267 354.129 65.04C354.263 65.2267 354.369 65.3867 354.449 65.52C354.103 65.84 353.463 66.2 352.529 66.6C351.623 66.9733 350.623 67.16 349.529 67.16C348.463 67.16 347.676 66.8133 347.169 66.12C346.663 65.4267 346.409 64.4667 346.409 63.24C346.409 62.9467 346.396 62.3067 346.369 61.32C346.369 60.3067 346.356 59.0933 346.329 57.68C346.329 56.2667 346.316 54.8 346.289 53.28C346.289 51.76 346.276 50.3467 346.249 49.04C346.249 47.7067 346.236 46.6267 346.209 45.8C346.209 44.9733 346.209 44.56 346.209 44.56C346.476 44.5067 346.929 44.4667 347.569 44.44C348.236 44.4133 348.956 44.44 349.729 44.52C350.503 44.6 351.223 44.7867 351.889 45.08C352.209 45.2133 352.636 45.3467 353.169 45.48C353.729 45.5867 354.263 45.64 354.769 45.64C355.303 45.64 355.689 45.56 355.929 45.4C356.436 45.0267 356.943 44.7067 357.449 44.44C357.983 44.1733 358.516 43.9733 359.049 43.84ZM380.72 44.04C382.56 44.28 383.893 44.8133 384.72 45.64C385.573 46.4667 386.053 47.44 386.16 48.56C386.293 49.68 386.173 50.8267 385.8 52C385.587 52.6667 385.267 53.52 384.84 54.56C384.44 55.5733 384.013 56.6133 383.56 57.68C383.133 58.7467 382.733 59.7067 382.36 60.56C381.987 61.3867 381.733 61.9733 381.6 62.32C381.173 63.3067 380.667 64.36 380.08 65.48C379.493 66.5733 378.84 67.6 378.12 68.56C377.427 69.52 376.693 70.3067 375.92 70.92C375.173 71.5333 374.44 71.84 373.72 71.84C372.76 71.84 371.973 71.6 371.36 71.12C370.773 70.64 370.333 70.04 370.04 69.32C369.747 68.6267 369.56 67.9467 369.48 67.28C370.173 67.4667 370.813 67.4533 371.4 67.24C371.987 67.0533 372.493 66.7733 372.92 66.4C373.32 66.0267 373.56 65.6 373.64 65.12C373.747 64.64 373.773 64.2133 373.72 63.84C373.587 62.3467 373.173 60.7333 372.48 59L366.6 44.44C367 44.3867 367.52 44.32 368.16 44.24C368.827 44.1333 369.52 44.12 370.24 44.2C370.987 44.2533 371.68 44.4533 372.32 44.8C372.987 45.12 373.533 45.6667 373.96 46.44C374.12 46.7067 374.307 47.12 374.52 47.68C374.76 48.2133 375 48.7867 375.24 49.4C375.507 49.9867 375.72 50.4933 375.88 50.92C376.173 51.56 376.48 52.08 376.8 52.48C377.147 52.8533 377.493 53.0533 377.84 53.08C378.133 53.1067 378.427 53 378.72 52.76C379.013 52.4933 379.253 52.16 379.44 51.76C379.6 51.3867 379.787 50.8267 380 50.08C380.213 49.3333 380.387 48.7067 380.52 48.2C380.76 47.2667 380.88 46.4667 380.88 45.8C380.907 45.1333 380.853 44.5467 380.72 44.04Z" fill="#EF4444"/>
</mask>
<g mask="url(#mask0_110_2)">
<path d="M94 21H392V84H94V21Z" fill="#EF4444"/>
</g>
</svg>
